<?xml version="1.0" encoding="utf-8"?>
<!-- Generator: Adobe Illustrator 25.3.0, SVG Export Plug-In . SVG Version: 6.00 Build 0)  -->
<svg version="1.1" id="Layer_1" xmlns="http://www.w3.org/2000/svg" xmlns:xlink="http://www.w3.org/1999/xlink" x="0px" y="0px"
	 viewBox="0 0 48 48" style="enable-background:new 0 0 48 48;" xml:space="preserve">
<style type="text/css">
	.st0{fill:url(#SVGID_1_);}
	.st1{fill:url(#SVGID_2_);}
	.st2{fill:none;stroke:#FFFFFF;stroke-width:1.194;stroke-miterlimit:10;}
	.st3{fill:#FFFFFF;}
</style>
<g>
	<linearGradient id="SVGID_1_" gradientUnits="userSpaceOnUse" x1="35.5637" y1="46.121" x2="40.9848" y2="40.9099">
		<stop  offset="0" style="stop-color:#F9C903"/>
		<stop  offset="0.3797" style="stop-color:#E51631"/>
		<stop  offset="0.6955" style="stop-color:#C22C77"/>
		<stop  offset="1" style="stop-color:#784F9B"/>
	</linearGradient>
	<path class="st0" d="M39.15,40.26c-0.01-0.11-0.03-0.07-0.04-0.07c-0.02,0-0.03,0.03-0.04,0.05c-0.03,0.04-0.05,0.09-0.08,0.15
		c-0.05,0.11-0.08,0.25-0.11,0.39c-0.04,0.28-0.08,0.59-0.04,0.9c0.05,0.64,0.27,1.32,0.66,1.98c0.39,0.67,0.97,1.28,1.64,1.86
		c0.34,0.28,0.71,0.53,1.08,0.8l1.2,0.7l-1.42,0.02c-0.47-0.04-0.97-0.07-1.46-0.14c-0.97-0.18-2-0.43-2.98-0.95
		c-0.98-0.51-1.94-1.23-2.72-2.2c-0.4-0.48-0.74-1.02-1.03-1.61c-0.14-0.3-0.28-0.6-0.39-0.94c-0.06-0.16-0.11-0.33-0.15-0.52
		c-0.02-0.09-0.05-0.18-0.06-0.29c-0.02-0.11-0.04-0.19-0.05-0.41L39.15,40.26z"/>
</g>
<linearGradient id="SVGID_2_" gradientUnits="userSpaceOnUse" x1="10.9711" y1="46.5892" x2="37.0289" y2="1.4558">
	<stop  offset="0" style="stop-color:#F9C903"/>
	<stop  offset="0.3797" style="stop-color:#E51631"/>
	<stop  offset="0.6955" style="stop-color:#C22C77"/>
	<stop  offset="1" style="stop-color:#784F9B"/>
</linearGradient>
<path class="st1" d="M38.5,44.6H9.5c-4.06,0-7.39-3.32-7.39-7.39V10.83c0-4.06,3.32-7.39,7.39-7.39H38.5c4.06,0,7.39,3.32,7.39,7.39
	v26.38C45.89,41.28,42.57,44.6,38.5,44.6z"/>
<path class="st2" d="M35.7,41.81H12.3c-4.25,0-7.72-3.47-7.72-7.72V13.73c0-4.25,3.47-7.72,7.72-7.72H35.7
	c4.25,0,7.72,3.47,7.72,7.72v20.36C43.42,38.34,39.94,41.81,35.7,41.81z"/>
<g>
	<path class="st3" d="M22.34,25.13v4.51c0,0.71-0.16,1.25-0.48,1.6c-0.32,0.36-0.75,0.53-1.27,0.53c-0.51,0-0.93-0.18-1.24-0.53
		s-0.48-0.89-0.48-1.6v-5.4c0-0.85-0.03-1.51-0.09-1.99s-0.21-0.86-0.47-1.16c-0.26-0.3-0.66-0.45-1.21-0.45
		c-1.1,0-1.83,0.38-2.18,1.14c-0.35,0.76-0.53,1.85-0.53,3.28v4.58c0,0.7-0.16,1.24-0.48,1.6c-0.32,0.36-0.74,0.54-1.25,0.54
		c-0.51,0-0.93-0.18-1.26-0.54c-0.33-0.36-0.49-0.89-0.49-1.6v-9.7c0-0.64,0.15-1.12,0.44-1.45s0.68-0.5,1.16-0.5
		c0.46,0,0.85,0.16,1.16,0.47c0.31,0.31,0.46,0.74,0.46,1.29v0.32c0.58-0.7,1.21-1.22,1.88-1.55c0.67-0.33,1.41-0.5,2.23-0.5
		c0.85,0,1.58,0.17,2.19,0.51s1.11,0.85,1.51,1.54c0.57-0.7,1.18-1.21,1.83-1.55c0.65-0.33,1.37-0.5,2.16-0.5
		c0.92,0,1.72,0.18,2.39,0.55c0.67,0.36,1.17,0.89,1.5,1.56c0.29,0.61,0.43,1.58,0.43,2.89v6.62c0,0.71-0.16,1.25-0.48,1.6
		c-0.32,0.36-0.75,0.53-1.27,0.53c-0.51,0-0.93-0.18-1.25-0.54c-0.33-0.36-0.49-0.89-0.49-1.6v-5.7c0-0.73-0.03-1.31-0.09-1.75
		c-0.06-0.44-0.23-0.81-0.5-1.1c-0.27-0.3-0.68-0.45-1.24-0.45c-0.45,0-0.87,0.13-1.27,0.4c-0.4,0.27-0.71,0.62-0.93,1.07
		C22.46,22.67,22.34,23.68,22.34,25.13z"/>
	<path class="st3" d="M35.22,16.41c-0.47,0-0.87-0.14-1.21-0.43c-0.33-0.29-0.5-0.7-0.5-1.23c0-0.48,0.17-0.88,0.51-1.19
		c0.34-0.31,0.74-0.47,1.19-0.47c0.44,0,0.82,0.14,1.16,0.42c0.34,0.28,0.51,0.69,0.51,1.23c0,0.52-0.17,0.93-0.5,1.22
		C36.07,16.27,35.67,16.41,35.22,16.41z M36.89,19.91v9.8c0,0.68-0.16,1.19-0.48,1.54s-0.73,0.52-1.22,0.52
		c-0.49,0-0.9-0.18-1.21-0.53s-0.46-0.86-0.46-1.53v-9.7c0-0.67,0.15-1.18,0.46-1.51s0.71-0.51,1.21-0.51c0.5,0,0.9,0.17,1.22,0.51
		S36.89,19.31,36.89,19.91z"/>
</g>
</svg>
